<?xml version="1.0" encoding="iso-8859-1"?>
<!-- Generator: Adobe Illustrator 19.0.0, SVG Export Plug-In . SVG Version: 6.00 Build 0)  -->
<svg version="1.1" id="Layer_1" xmlns="http://www.w3.org/2000/svg" xmlns:xlink="http://www.w3.org/1999/xlink" x="0px" y="0px"
	 viewBox="0 0 511.996 511.996" style="enable-background:new 0 0 511.996 511.996;" xml:space="preserve">
<path d="M95.241,241.015c-11.44,4.104-23.479,6.248-35.631,6.352c-15.928,0.904-31.551-4.608-43.383-15.312
	C5.252,220.399-0.572,204.824,0.044,188.824c0.168-34.599,23.927-59.918,62.814-59.918c9.912-0.232,19.759,1.592,28.927,5.352
	l-3.608,12.224c-8.088-3.512-16.847-5.216-25.663-4.984c-23.887-1.872-44.775,15.983-46.647,39.871
	c-0.176,2.256-0.176,4.512,0,6.768c0,29.423,17.743,46.815,44.759,46.815c6.808,0.376,13.624-0.68,19.999-3.088v-34.599H57.019
	v-12.072h38.223V241.015z"/>
<path style="fill:#E21B1B;" d="M193.918,203.792c0,30.823-21.351,44.239-41.495,44.239c-22.551,0-39.927-16.511-39.927-42.871
	c0-27.871,18.231-44.239,41.295-44.239C177.751,160.921,193.918,178.321,193.918,203.792z M127.816,204.648
	c0,18.255,10.504,31.999,25.295,31.999c14.48,0,25.319-13.6,25.319-32.367c0-14.112-7.064-31.999-24.983-31.999
	S127.816,188.824,127.816,204.648z"/>
<path style="fill:#666666;" d="M288.491,203.792c0,30.823-21.351,44.239-41.495,44.239c-22.551,0-39.927-16.511-39.927-42.871
	c0-27.871,18.231-44.239,41.295-44.239C272.316,160.921,288.491,178.321,288.491,203.792z M222.389,204.648
	c0,18.255,10.504,31.999,25.295,31.999c14.48,0,25.319-13.6,25.319-32.367c0-14.112-7.064-31.999-24.983-31.999
	S222.381,188.824,222.389,204.648L222.389,204.648z"/>
<path d="M379.424,162.809c-0.344,6.04-0.688,12.8-0.688,22.919v48.366c0,19.111-3.8,30.823-11.88,38.031
	c-8.504,6.992-19.311,10.552-30.303,9.984c-9.696,0.24-19.271-2.128-27.727-6.872l3.8-11.536c7.4,4.368,15.848,6.624,24.439,6.528
	c15.48,0,26.847-8.096,26.847-29.079v-9.288h-0.344c-5.68,9.08-15.799,14.408-26.495,13.952c-20.663,0-35.455-17.599-35.455-40.639
	c0-28.215,18.399-44.239,37.519-44.239c10.736-0.632,20.871,5.016,25.983,14.48h0.344l0.688-12.592L379.424,162.809z
	 M363.745,195.688c0.088-2.32-0.2-4.64-0.856-6.872c-2.632-9.504-11.312-16.063-21.175-15.999
	c-14.456,0-24.799,12.224-24.799,31.503c0,16.367,8.272,29.959,24.615,29.959c9.624-0.056,18.111-6.304,21.007-15.48
	c0.816-2.624,1.224-5.352,1.2-8.096L363.745,195.688z"/>
<path d="M403.912,123.914h15.2v122.228h-15.2V123.914z"/>
<path style="fill:#E21B1B;" d="M452.99,207.224c-1.272,14.688,9.6,27.631,24.295,28.903c1.416,0.12,2.848,0.136,4.264,0.024
	c7.912,0.248,15.792-1.216,23.087-4.296l2.576,10.848c-8.776,3.648-18.223,5.4-27.727,5.152c-25.639,0-40.951-16.855-40.951-42.007
	s14.8-44.927,39.063-44.927c27.199,0,34.399,23.927,34.399,39.263c-0.024,2.352-0.2,4.704-0.512,7.04L452.99,207.224L452.99,207.224
	z M497.405,196.376c0.168-9.6-3.952-24.615-21.007-24.615c-15.312,0-22.031,14.136-23.199,24.615H497.405z"/>
<g>
	<rect x="0.612" y="328.164" style="fill:#999999;" width="510.848" height="12"/>
	<rect x="93.553" y="376.082" style="fill:#999999;" width="324.958" height="12"/>
</g>
<g>
</g>
<g>
</g>
<g>
</g>
<g>
</g>
<g>
</g>
<g>
</g>
<g>
</g>
<g>
</g>
<g>
</g>
<g>
</g>
<g>
</g>
<g>
</g>
<g>
</g>
<g>
</g>
<g>
</g>
</svg>
